<svg id="Capa_1" enable-background="new 0 0 512 512" height="512" viewBox="0 0 512 512" width="512" xmlns="http://www.w3.org/2000/svg"><g><path d="m301.228 193.748-31.777-64.388c-2.527-5.12-7.742-8.361-13.451-8.361s-10.924 3.242-13.451 8.361l-31.777 64.388-71.056 10.325c-5.65.821-10.345 4.779-12.109 10.209-1.765 5.43-.293 11.391 3.795 15.376l51.417 50.119-12.138 70.769c-.965 5.627 1.348 11.315 5.967 14.671 4.62 3.356 10.743 3.799 15.797 1.142l63.555-33.414 63.554 33.412c5.083 2.673 11.205 2.194 15.797-1.142 4.619-3.356 6.933-9.043 5.967-14.671l-12.138-70.769 51.417-50.119c4.088-3.985 5.56-9.946 3.795-15.376-1.764-5.43-6.458-9.388-12.109-10.209zm1.365 70.05c-3.535 3.446-5.148 8.411-4.314 13.277l8.333 48.585-43.632-22.938c-2.185-1.149-4.583-1.723-6.98-1.723s-4.795.574-6.98 1.723l-43.632 22.938 8.333-48.585c.834-4.866-.779-9.831-4.314-13.277l-35.299-34.408 48.782-7.088c4.886-.71 9.109-3.779 11.294-8.206l21.816-44.204 21.816 44.204c2.185 4.427 6.409 7.496 11.294 8.206l48.782 7.088z"/><path d="m256 0c-140.959 0-256 115.05-256 256 0 140.959 115.05 256 256 256 140.959 0 256-115.05 256-256 0-140.959-115.05-256-256-256zm0 482c-124.617 0-226-101.383-226-226s101.383-226 226-226 226 101.383 226 226-101.383 226-226 226z"/><path d="m256 60c-107.638 0-196 88.353-196 196 0 107.638 88.353 196 196 196 107.638 0 196-88.353 196-196 0-107.638-88.353-196-196-196zm0 362c-91.533 0-166-74.467-166-166s74.467-166 166-166 166 74.467 166 166-74.467 166-166 166z"/></g></svg>